<svg xmlns="http://www.w3.org/2000/svg" xml:space="preserve" id="Layer_1" width="800" height="800" viewBox="0 0 503.322 503.322"><path d="M138.847 468.61a8.676 8.676 0 0 1-8.678-8.678V147.525a8.676 8.676 0 0 1 8.678-8.678 8.676 8.676 0 0 1 8.678 8.678v312.407a8.676 8.676 0 0 1-8.678 8.678m225.628 0a8.676 8.676 0 0 1-8.678-8.678V147.525a8.676 8.676 0 0 1 8.678-8.678 8.676 8.676 0 0 1 8.678 8.678v312.407c0 4.79-3.88 8.678-8.678 8.678" style="fill:#ecf0f1"/><path d="M86.776 112.817h329.763V78.105H86.776z" style="fill:#bdc3c7"/><path d="M21.695 138.847C9.711 138.847 0 129.137 0 117.153v-43.39c0-11.984 9.711-21.695 21.695-21.695s21.695 9.71 21.695 21.695v43.39c0 11.984-9.711 21.694-21.695 21.694" style="fill:#546a79"/><path d="M65.085 156.203c-11.984 0-21.695-9.711-21.695-21.695V56.407c0-11.984 9.711-21.695 21.695-21.695S86.78 44.423 86.78 56.407v78.102c0 11.984-9.711 21.694-21.695 21.694" style="fill:#38454f"/><path d="M481.627 52.068c11.984 0 21.695 9.711 21.695 21.695v43.39c0 11.984-9.711 21.695-21.695 21.695s-21.695-9.711-21.695-21.695v-43.39c0-11.985 9.711-21.695 21.695-21.695" style="fill:#546a79"/><path d="M438.237 34.712c11.984 0 21.695 9.711 21.695 21.695v78.102c0 11.984-9.711 21.695-21.695 21.695s-21.695-9.711-21.695-21.695V56.407c0-11.984 9.711-21.695 21.695-21.695" style="fill:#38454f"/><path d="M121.488 147.529H156.2v-34.712h-34.712zm225.627 0h34.712v-34.712h-34.712z" style="fill:#546a79"/><path d="M312.407 468.61a8.676 8.676 0 0 1-8.678-8.678V338.441H199.593v121.492a8.676 8.676 0 0 1-8.678 8.678 8.676 8.676 0 0 1-8.678-8.678v-130.17a8.676 8.676 0 0 1 8.678-8.678h121.492a8.676 8.676 0 0 1 8.678 8.678v130.169a8.676 8.676 0 0 1-8.678 8.678" style="fill:#ecf0f1"/><path d="M312.407 329.763H190.915c-9.589 0-17.356-7.767-17.356-17.356s7.767-17.356 17.356-17.356h121.492c9.589 0 17.356 7.767 17.356 17.356s-7.767 17.356-17.356 17.356" style="fill:#bdc3c7"/></svg>