<svg xmlns="http://www.w3.org/2000/svg" xml:space="preserve" id="Layer_1" width="800" height="800" viewBox="0 0 502.674 502.674"><path d="M187.259 471.04c-11.716 11.716-30.881 11.716-42.596 0L31.089 357.456c-11.716-11.706-11.716-30.881 0-42.586 11.706-11.716 30.881-11.716 42.586 0l113.584 113.574c11.716 11.715 11.716 30.88 0 42.596" style="fill:#38454f"/><path d="m123.37 492.336-2.65 2.65c-10.25 10.25-27.036 10.25-37.296 0l-74.431-74.43c-11.274-11.274-11.274-29.726 0-41.01l.793-.793c11.716-11.706 30.881-11.706 42.596 0l70.987 70.987c11.716 11.716 11.716 30.88.001 42.596" style="fill:#546a79"/><path d="M315.037 30.915c11.716-11.716 30.881-11.716 42.596 0l113.574 113.584c11.716 11.706 11.716 30.881 0 42.586-11.706 11.716-30.881 11.716-42.586 0L315.037 73.511c-11.715-11.716-11.715-30.88 0-42.596" style="fill:#38454f"/><path d="M378.927 9.619c11.716-11.716 30.881-11.716 42.596 0l72.403 72.403c10.933 10.933 10.933 28.833 0 39.765l-1.416 1.416c-11.716 11.706-30.881 11.706-42.596 0l-70.987-70.987c-11.716-11.717-11.716-30.882 0-42.597" style="fill:#546a79"/><path d="M31.085 186.252c-11.716-11.716-11.716-30.881 0-42.596L144.669 30.082c11.706-11.716 30.881-11.716 42.586 0 11.716 11.706 11.716 30.881 0 42.586L73.682 186.252c-11.716 11.715-30.881 11.715-42.597 0" style="fill:#38454f"/><path d="M9.788 122.363c-11.716-11.716-11.716-30.881 0-42.596L80.775 8.779c11.716-11.706 30.881-11.706 42.596 0 11.706 11.716 11.706 30.881 0 42.596l-70.987 70.987c-11.715 11.717-30.88 11.717-42.596.001" style="fill:#546a79"/><path d="M471.211 314.031c11.716 11.716 11.716 30.881 0 42.596L357.628 470.201c-11.706 11.716-30.881 11.716-42.586 0-11.716-11.706-11.716-30.881 0-42.586l113.574-113.584c11.715-11.716 30.88-11.716 42.595 0" style="fill:#38454f"/><path d="m492.507 377.919 1.446 1.446c10.913 10.913 10.913 28.782 0 39.705l-76.268 76.268c-9.608 9.598-25.319 9.598-34.916 0l-3.845-3.835c-11.706-11.716-11.706-30.881 0-42.596l70.987-70.987c11.715-11.717 30.88-11.717 42.596-.001" style="fill:#546a79"/><path d="M407.322 335.327 165.959 93.964l-70.987 70.987 241.363 241.363z" style="fill:#bdc3c7"/><path d="m322.554 250.559 84.771-84.771L336.338 94.8l-84.772 84.771zm-141.977 0-85.604 85.604 70.987 70.987 85.604-85.604z" style="fill:#ecf0f1"/></svg>