<svg xmlns="http://www.w3.org/2000/svg" xml:space="preserve" id="Layer_1" width="800" height="800" viewBox="0 0 512 512"><path d="M168.724 505.568H71.621c-9.754 0-17.655-7.901-17.655-17.655v-17.655H186.38v17.655c-.001 9.754-7.901 17.655-17.656 17.655m273.983 0h-35.964c-9.569 0-17.329-7.759-17.329-17.329v-17.982h70.621v17.982c0 9.569-7.759 17.329-17.328 17.329" style="fill:#bdc3c7" transform="translate(-1)"/><path d="M513 417.292c0-29.255-23.711-52.966-52.966-52.966s-52.966 23.711-52.966 52.966 23.711 52.966 52.966 52.966c29.255-.001 52.966-23.712 52.966-52.966m-406.069 0c0-29.255-23.711-52.966-52.966-52.966S1 388.037 1 417.292s23.711 52.966 52.966 52.966 52.965-23.712 52.965-52.966" style="fill:#bdc3c7" transform="translate(-1)"/><path d="M407.069 417.292c0-29.255 23.711-52.966 52.966-52.966H53.966c29.255 0 52.966 23.711 52.966 52.966s-23.711 52.966-52.966 52.966h406.069c-29.255-.001-52.966-23.712-52.966-52.966M280.933 99.499h-105.11a24.88 24.88 0 0 1-22.599-14.46l-32.636-71.998c-2.639-5.809-9.578-8.271-15.289-5.42l-15.254 7.627a11.256 11.256 0 0 0-5.261 14.618l30.799 69.703h.159l-17.638 70.55h65.739c15.113 0 29.06-6.753 39.865-17.32a57.56 57.56 0 0 1 22.051-13.462 88.2 88.2 0 0 1 27.904-4.529h27.268c6.285 0 11.379-5.094 11.379-11.379v-12.553c.002-6.284-5.091-11.377-11.377-11.377" style="fill:#38454f" transform="translate(-1)"/><path d="M45.138 364.326h79.448l25.892-194.207H98.103z" style="fill:#bdc3c7" transform="translate(-1)"/><path d="M159.897 426.119h-17.655c-4.882 0-8.828-3.955-8.828-8.828s3.946-8.828 8.828-8.828h17.655c4.882 0 8.828 3.955 8.828 8.828s-3.947 8.828-8.828 8.828m52.965 0h-17.655c-4.882 0-8.828-3.955-8.828-8.828s3.946-8.828 8.828-8.828h17.655c4.882 0 8.828 3.955 8.828 8.828s-3.946 8.828-8.828 8.828m52.966 0h-17.655c-4.882 0-8.828-3.955-8.828-8.828s3.946-8.828 8.828-8.828h17.655c4.882 0 8.828 3.955 8.828 8.828s-3.947 8.828-8.828 8.828m52.965 0h-17.655c-4.882 0-8.828-3.955-8.828-8.828s3.946-8.828 8.828-8.828h17.655c4.882 0 8.828 3.955 8.828 8.828s-3.946 8.828-8.828 8.828m52.966 0h-17.655c-4.882 0-8.828-3.955-8.828-8.828s3.946-8.828 8.828-8.828h17.655c4.882 0 8.828 3.955 8.828 8.828s-3.947 8.828-8.828 8.828" style="fill:#546a79" transform="translate(-1)"/><path d="M98.103 284.878H66.81l-4.82 17.655h36.114a8.826 8.826 0 0 0 8.828-8.828 8.827 8.827 0 0 0-8.829-8.827m-8.827 52.965a8.826 8.826 0 0 0 8.828-8.828 8.826 8.826 0 0 0-8.828-8.828H57.179l-4.82 17.655z" style="fill:#38454f" transform="translate(-1)"/></svg>