<svg xmlns="http://www.w3.org/2000/svg" xml:space="preserve" id="Layer_1" width="800" height="800" viewBox="0 0 512 512"><path d="M250.851 34.133h-75.913c-37.709 0-68.267 30.566-68.267 68.267v17.067l25.6 42.667 25.6-42.667V102.4c0-9.429 7.637-17.067 17.067-17.067h74.146zm128.884 0h-75.913l1.758 51.2h22.955c0 28.279 22.921 51.2 51.2 51.2v136.533h51.2V85.333c0-28.279-22.921-51.2-51.2-51.2" style="fill:#38454f"/><path d="M89.601 512a8.53 8.53 0 0 1-8.533-8.533v-85.333c0-4.71 3.814-8.533 8.533-8.533s8.533 3.823 8.533 8.533v85.333A8.53 8.53 0 0 1 89.601 512m214.857-8.533h-54.246c-8.499 0-15.3-7.04-15.01-15.531L251.73 8.533h51.2l16.538 479.403c.29 8.491-6.511 15.531-15.01 15.531m75.277-392.534c-14.114 0-25.6-11.486-25.6-25.6s11.486-25.6 25.6-25.6 25.6 11.486 25.6 25.6-11.486 25.6-25.6 25.6m64 204.8h-76.8c-11.733 0-21.333-9.6-21.333-21.333s9.6-21.333 21.333-21.333h76.8c11.733 0 21.333 9.6 21.333 21.333s-9.6 21.333-21.333 21.333m0 51.2h-76.8c-11.733 0-21.333-9.6-21.333-21.333s9.6-21.333 21.333-21.333h76.8c11.733 0 21.333 9.6 21.333 21.333s-9.6 21.333-21.333 21.333m0 51.2h-76.8c-11.733 0-21.333-9.6-21.333-21.333s9.6-21.333 21.333-21.333h76.8c11.733 0 21.333 9.6 21.333 21.333s-9.6 21.333-21.333 21.333" style="fill:#bdc3c7"/><path d="M379.735 85.333a8.53 8.53 0 0 1-8.533-8.533V8.533A8.53 8.53 0 0 1 379.735 0a8.53 8.53 0 0 1 8.533 8.533V76.8a8.53 8.53 0 0 1-8.533 8.533M145.347 256h-26.155c-6.921 0-12.527-5.606-12.527-12.518v-26.163c0-6.912 5.606-12.518 12.527-12.518h26.155c6.912 0 12.518 5.606 12.518 12.518v26.163c0 6.912-5.606 12.518-12.518 12.518" style="fill:#bdc3c7"/><path d="M132.268 213.333a8.53 8.53 0 0 1-8.533-8.533v-42.667c0-4.71 3.814-8.533 8.533-8.533s8.533 3.823 8.533 8.533V204.8a8.53 8.53 0 0 1-8.533 8.533" style="fill:#bdc3c7"/><path d="M239.376 366.933H65.202c-10.086 0-18.27 8.175-18.27 18.27v14.66c0 10.095 8.183 18.27 18.27 18.27h172.407z" style="fill:#38454f"/></svg>